<svg width="258" height="32" viewBox="0 0 258 32" fill="none" xmlns="http://www.w3.org/2000/svg">
<path d="M7.53123 30.0256C6.28123 30.0256 5.59373 29.4163 5.20311 28.01L0.20311 10.0413C0.0624847 9.54126 -1.52588e-05 9.11938 -1.52588e-05 8.76001C-1.52588e-05 7.65063 0.781235 6.94751 1.98436 6.94751C3.03123 6.94751 3.68748 7.52563 3.93748 8.63501L7.70311 24.2913H7.82811L11.9687 8.85376C12.3125 7.51001 12.9687 6.94751 14.1562 6.94751C15.2969 6.94751 15.9687 7.54126 16.3125 8.80688L20.4531 24.2913H20.5781L24.3437 8.63501C24.5937 7.51001 25.25 6.94751 26.2969 6.94751C27.5 6.94751 28.2812 7.65063 28.2812 8.76001C28.2812 9.10376 28.2187 9.52563 28.0781 10.0413L23.0625 28.0256C22.6875 29.4163 22 30.0256 20.7656 30.0256C19.4687 30.0256 18.7812 29.4475 18.3906 28.0256L14.2187 13.4475H14.0625L9.89061 28.0256C9.51561 29.4319 8.79686 30.0256 7.53123 30.0256ZM36.8044 30.0881C31.7419 30.0881 28.7575 26.9163 28.7575 21.5413C28.7575 16.26 31.8044 12.8538 36.5856 12.8538C41.1169 12.8538 44.2106 16.0725 44.2106 20.5725C44.2106 21.7288 43.5544 22.4163 42.3981 22.4163H32.6325V22.5413C32.6325 25.3069 34.2419 27.0881 36.7731 27.0881C38.5231 27.0881 39.6637 26.4788 40.9137 24.885C41.32 24.4319 41.6794 24.26 42.2262 24.26C43.1012 24.26 43.7887 24.8225 43.7887 25.76C43.7887 26.0569 43.695 26.4006 43.5231 26.7444C42.4294 28.8538 39.9606 30.0881 36.8044 30.0881ZM32.6637 19.8538H40.3981C40.32 17.4475 38.7887 15.8694 36.6012 15.8694C34.4137 15.8694 32.82 17.4788 32.6637 19.8538ZM49.1087 30.0725C47.9681 30.0725 47.1556 29.3381 47.1556 28.0256V8.94751C47.1556 7.63501 47.9681 6.90063 49.1087 6.90063C50.2494 6.90063 51.0462 7.63501 51.0462 8.94751V28.0256C51.0462 29.3381 50.2494 30.0725 49.1087 30.0725ZM61.96 30.0881C57.1162 30.0881 53.9912 26.8069 53.9912 21.4944C53.9912 16.2131 57.1006 12.8538 61.9287 12.8538C65.1787 12.8538 67.9444 14.5256 68.7412 16.8538C68.8662 17.1819 68.9444 17.51 68.9444 17.7913C68.9444 18.76 68.21 19.3538 67.2725 19.3538C66.4912 19.3538 66.0225 19.0256 65.5694 18.2444C64.7412 16.7288 63.6475 16.01 62.0381 16.01C59.5381 16.01 57.9444 18.0881 57.9444 21.4788C57.9444 24.9163 59.5537 26.9475 62.0225 26.9475C63.7412 26.9475 64.8037 26.1506 65.5537 24.8225C66.085 23.9475 66.5069 23.6194 67.3506 23.6194C68.2725 23.6194 68.9912 24.2444 68.9912 25.2131C68.9912 25.51 68.9131 25.8381 68.7569 26.2131C67.835 28.4788 65.085 30.0881 61.96 30.0881ZM79.2644 30.0881C74.405 30.0881 71.2487 26.8538 71.2487 21.4788C71.2487 16.135 74.4362 12.8538 79.2644 12.8538C84.0925 12.8538 87.28 16.1194 87.28 21.4788C87.28 26.8538 84.1237 30.0881 79.2644 30.0881ZM79.2644 27.01C81.7331 27.01 83.3269 25.01 83.3269 21.4788C83.3269 17.9631 81.7331 15.9475 79.2644 15.9475C76.8112 15.9475 75.2019 17.9631 75.2019 21.4788C75.2019 25.01 76.7956 27.01 79.2644 27.01ZM92.0375 30.0725C90.8656 30.0725 90.1 29.3225 90.1 28.0256V14.8538C90.1 13.5881 90.8656 12.8694 91.9594 12.8694C93.0531 12.8694 93.8344 13.5881 93.8344 14.8538V16.0725H93.9125C94.6312 14.1506 96.3812 12.885 98.6312 12.885C100.975 12.885 102.647 14.0881 103.256 16.2131H103.35C104.147 14.1663 106.116 12.885 108.506 12.885C111.772 12.885 113.912 15.0881 113.912 18.4006V28.0256C113.912 29.3225 113.131 30.0725 111.975 30.0725C110.803 30.0725 110.022 29.3225 110.022 28.0256V19.3538C110.022 17.3225 108.959 16.1663 107.053 16.1663C105.178 16.1663 103.897 17.5413 103.897 19.5256V28.0256C103.897 29.3225 103.162 30.0725 102.006 30.0725C100.834 30.0725 100.116 29.3225 100.116 28.0256V19.1506C100.116 17.3069 98.9906 16.1663 97.1781 16.1663C95.3031 16.1663 93.9906 17.6194 93.9906 19.6194V28.0256C93.9906 29.3225 93.1937 30.0725 92.0375 30.0725ZM124.717 30.0881C119.654 30.0881 116.67 26.9163 116.67 21.5413C116.67 16.26 119.717 12.8538 124.498 12.8538C129.029 12.8538 132.123 16.0725 132.123 20.5725C132.123 21.7288 131.467 22.4163 130.311 22.4163H120.545V22.5413C120.545 25.3069 122.154 27.0881 124.686 27.0881C126.436 27.0881 127.576 26.4788 128.826 24.885C129.232 24.4319 129.592 24.26 130.139 24.26C131.014 24.26 131.701 24.8225 131.701 25.76C131.701 26.0569 131.607 26.4006 131.436 26.7444C130.342 28.8538 127.873 30.0881 124.717 30.0881ZM120.576 19.8538H128.311C128.232 17.4475 126.701 15.8694 124.514 15.8694C122.326 15.8694 120.732 17.4788 120.576 19.8538ZM144.091 29.76C142.841 29.76 142.076 28.9788 142.076 27.6663V9.30688C142.076 7.99438 142.841 7.21313 144.091 7.21313H151.435C155.529 7.21313 158.169 9.41626 158.169 12.8381C158.169 15.26 156.372 17.3694 154.06 17.7444V17.8694C157.122 18.1663 159.263 20.3694 159.263 23.3538C159.263 27.3225 156.341 29.76 151.529 29.76H144.091ZM146.107 16.7131H149.794C152.607 16.7131 154.185 15.5256 154.185 13.4319C154.185 11.4631 152.826 10.3538 150.419 10.3538H146.107V16.7131ZM146.107 26.6194H150.607C153.576 26.6194 155.154 25.385 155.154 23.0725C155.154 20.7756 153.529 19.5725 150.435 19.5725H146.107V26.6194ZM166.927 30.0256C163.724 30.0256 161.396 28.01 161.396 25.0256C161.396 22.0881 163.661 20.3225 167.692 20.0725L172.083 19.8225V18.635C172.083 16.9006 170.911 15.9006 168.989 15.9006C167.474 15.9006 166.489 16.4163 165.521 17.8381C165.114 18.3694 164.599 18.6194 163.942 18.6194C162.989 18.6194 162.302 17.9944 162.302 17.0569C162.302 16.6975 162.396 16.3538 162.567 15.9944C163.411 14.0725 165.974 12.8538 169.146 12.8538C173.255 12.8538 175.927 15.0256 175.927 18.3538V28.1194C175.927 29.3694 175.13 30.0725 174.036 30.0725C172.974 30.0725 172.239 29.4319 172.177 28.2756V27.1194H172.099C171.146 28.9163 169.067 30.0256 166.927 30.0256ZM168.114 27.0881C170.302 27.0881 172.083 25.6194 172.083 23.6194V22.3538L168.239 22.5881C166.364 22.7131 165.286 23.5569 165.286 24.8694C165.286 26.2288 166.427 27.0881 168.114 27.0881ZM186.669 30.0881C181.825 30.0881 178.7 26.8069 178.7 21.4944C178.7 16.2131 181.809 12.8538 186.637 12.8538C189.887 12.8538 192.653 14.5256 193.45 16.8538C193.575 17.1819 193.653 17.51 193.653 17.7913C193.653 18.76 192.919 19.3538 191.981 19.3538C191.2 19.3538 190.731 19.0256 190.278 18.2444C189.45 16.7288 188.356 16.01 186.747 16.01C184.247 16.01 182.653 18.0881 182.653 21.4788C182.653 24.9163 184.262 26.9475 186.731 26.9475C188.45 26.9475 189.512 26.1506 190.262 24.8225C190.794 23.9475 191.216 23.6194 192.059 23.6194C192.981 23.6194 193.7 24.2444 193.7 25.2131C193.7 25.51 193.622 25.8381 193.466 26.2131C192.544 28.4788 189.794 30.0881 186.669 30.0881ZM198.707 30.0725C197.567 30.0725 196.754 29.3381 196.754 28.0256V8.94751C196.754 7.63501 197.567 6.90063 198.707 6.90063C199.848 6.90063 200.645 7.63501 200.645 8.94751V20.0413H200.692L207.192 13.6194C207.692 13.0881 208.114 12.8694 208.707 12.8694C209.676 12.8694 210.411 13.6038 210.411 14.5413C210.411 15.1194 210.239 15.4788 209.707 15.9788L204.989 20.4475L210.176 26.9319C210.582 27.4944 210.707 27.8381 210.707 28.3381C210.707 29.3538 209.942 30.0725 208.864 30.0725C208.098 30.0725 207.645 29.8069 207.082 28.9944L202.114 22.6975L200.645 24.0725V28.0256C200.645 29.3381 199.848 30.0725 198.707 30.0725ZM225.574 32H257.574V9.53674e-06H225.574V32Z" fill="#0C1421"/>
</svg>
